<?xml version="1.0" encoding="UTF-8"?>
<svg version="1.1" xmlns="http://www.w3.org/2000/svg" width="934" height="616">
<path d="M0 0 C0.71109924 0.08485657 1.42219849 0.16971313 2.15484619 0.25714111 C74.46312434 8.90058021 150.80477085 28.74225151 205.75390625 78.9765625 C207.52725596 80.57411928 209.31683982 82.08383492 211.1875 83.5625 C214.86656507 86.75102306 217.9040414 90.25038412 221 94 C222.23943359 95.48306641 222.23943359 95.48306641 223.50390625 96.99609375 C252.83549317 132.75869865 263.72264975 176.34953653 259.28076172 222.08398438 C256.41378088 247.48306921 250.25795694 273.12057413 238.93701172 296.08203125 C237.98840071 298.02374257 237.07250937 299.97852474 236.16015625 301.9375 C231.38900788 312.02846028 225.5403469 320.97693252 219 330 C217.85669795 331.6028126 216.71347148 333.20567911 215.5703125 334.80859375 C209.59199876 343.12024851 203.49140545 351.06212406 196.40234375 358.45703125 C194.64868401 360.31334424 193.01404674 362.15996779 191.3984375 364.12890625 C182.85828684 374.35205077 170.47193904 382.92253528 159 389.5625 C153.9296549 392.66694782 151.11233907 396.49205447 147.8046875 401.3671875 C140.42989129 412.12608933 127.95803745 420.07824827 115.42578125 423.4140625 C102.10053295 425.69318137 90.02377898 424.12641957 78.51171875 416.7890625 C71.11071201 411.51742784 65.33283555 405.68192769 60.375 398.06640625 C59.03136881 395.90005408 59.03136881 395.90005408 57 394 C56.36384766 395.051875 56.36384766 395.051875 55.71484375 396.125 C49.14324248 406.75510667 42.4974809 414.10910976 32 421 C31.36578125 421.42410156 30.7315625 421.84820312 30.078125 422.28515625 C20.16051415 428.0558015 6.02542801 429.23299808 -5 427 C-19.64918646 422.84630662 -28.48141534 413.07783488 -37 401 C-38.32129055 399.32377005 -39.65090005 397.65393014 -41 396 C-41.25652344 396.76441406 -41.51304687 397.52882813 -41.77734375 398.31640625 C-47.34340658 413.8901376 -55.5996352 429.35793218 -71 437 C-84.74307714 442.68269107 -98.44699782 442.14466456 -112.25390625 437.19140625 C-119.87542562 433.93743688 -123.69507215 427.34428411 -127 420 C-127.32871094 420.60585938 -127.65742187 421.21171875 -127.99609375 421.8359375 C-135.99058907 435.91838182 -147.32571453 447.0546372 -163 452 C-163.89525391 452.28617187 -163.89525391 452.28617187 -164.80859375 452.578125 C-175.64276973 454.66384872 -185.95234195 453.42583304 -195.2890625 447.5625 C-215.06232629 433.4290331 -222.78991323 409.05143366 -230 387 C-230.42297363 387.51062988 -230.84594727 388.02125977 -231.28173828 388.54736328 C-246.85287353 407.13835507 -268.57687159 420.09315685 -290 431 C-290.98274902 431.50096191 -291.96549805 432.00192383 -292.97802734 432.51806641 C-331.71882127 452.07931918 -372.52030191 465.93676154 -416 469 C-416 469.66 -416 470.32 -416 471 C-464.54661089 477.50787 -514.55107351 464.14801845 -553.42236328 434.48535156 C-559.59793562 429.64575772 -565.35674637 424.44949385 -571 419 C-571.84949219 418.20207031 -572.69898438 417.40414063 -573.57421875 416.58203125 C-608.63037136 382.8466756 -626.25155668 333.98269446 -627.1875 286 C-626.54953889 233.30441206 -605.57445817 185.87840954 -568.09765625 149.125 C-532.46331678 115.02170628 -483.70784686 97.83279368 -434.74609375 98.75 C-404.77461775 99.77906355 -376.33301153 107.81592617 -350 122 C-349.39317383 122.32081543 -348.78634766 122.64163086 -348.16113281 122.97216797 C-335.91590819 129.47806308 -325.42103296 137.53739569 -315.25390625 146.9375 C-313.2598231 148.7622416 -311.21276499 150.4727033 -309.125 152.1875 C-294.27372921 165.18236194 -283.04504087 182.64854158 -274 200 C-273.65195312 200.66338379 -273.30390625 201.32676758 -272.9453125 202.01025391 C-263.49726757 220.280322 -258.15029833 239.73754925 -255 260 C-254.8040625 261.20011719 -254.608125 262.40023438 -254.40625 263.63671875 C-253.70783201 269.51519273 -253.85130418 275.45483239 -253.86962891 281.3659668 C-253.8750504 283.45694011 -253.86962565 285.54770457 -253.86328125 287.63867188 C-253.86521484 289.6099707 -253.86521484 289.6099707 -253.8671875 291.62109375 C-253.86831543 292.8217749 -253.86944336 294.02245605 -253.87060547 295.25952148 C-254 298 -254 298 -255 299 C-257.25850415 299.40399797 -259.52775524 299.74794393 -261.79948425 300.0693512 C-262.87859895 300.22376605 -262.87859895 300.22376605 -263.97951394 300.38130039 C-266.40790739 300.72771234 -268.8371137 301.06805291 -271.26635742 301.40844727 C-273.00063976 301.65454669 -274.73487123 301.90100484 -276.46905518 302.14779663 C-281.19390098 302.81902884 -285.91948835 303.48489925 -290.6452539 304.14962125 C-295.58492946 304.84510546 -300.52402407 305.54469325 -305.46321106 306.24363708 C-313.76451808 307.41765111 -322.06632066 308.58811101 -330.3684082 309.7565918 C-339.96601748 311.10746506 -349.56276402 312.4643394 -359.15907973 313.82436901 C-367.39139027 314.99092701 -375.62415451 316.15424055 -383.8573063 317.31484646 C-388.77728442 318.00840507 -393.69709778 318.70308074 -398.61650658 319.40066719 C-403.24601094 320.05695811 -407.87607201 320.70917079 -412.5065918 321.35825729 C-414.20552445 321.59708178 -415.90425943 321.83731741 -417.60277748 322.07907295 C-419.92319557 322.4091094 -422.24427779 322.7340079 -424.56559753 323.05763245 C-425.86402682 323.24069222 -427.16245611 323.423752 -428.50023174 323.61235905 C-431.70467105 323.96728881 -434.77993989 324.07480428 -438 324 C-440.41112659 311.04787953 -442.36813792 298.04545643 -444.21704102 285.00219727 C-444.69320122 281.64733113 -445.17545429 278.29337686 -445.65820312 274.93945312 C-445.96390148 272.79692631 -446.26925314 270.65434999 -446.57421875 268.51171875 C-446.71792404 267.51387863 -446.86162933 266.51603851 -447.00968933 265.48796082 C-447.14015152 264.56211685 -447.27061371 263.63627289 -447.4050293 262.68237305 C-447.57798775 261.46689034 -447.57798775 261.46689034 -447.75444031 260.22685242 C-448 258 -448 258 -448 254 C-423.28422794 250.26263975 -398.55702653 246.6069739 -373.80709839 243.10229492 C-371.27506192 242.74328649 -368.74326036 242.38261721 -366.21170044 242.02026367 C-362.6418069 241.50991367 -359.07106084 241.00601478 -355.5 240.50390625 C-354.43837143 240.3511171 -353.37674286 240.19832794 -352.28294373 240.04090881 C-347.13324284 239.3244444 -342.19948197 238.82428015 -337 239 C-341.40038585 229.43517417 -346.26263122 221.15809893 -353 213 C-353.77214844 212.06285156 -354.54429687 211.12570313 -355.33984375 210.16015625 C-373.1884601 189.53444562 -399.15991992 176.78705262 -426 173 C-428.52761179 172.92070304 -431.05710238 172.89222841 -433.5859375 172.90234375 C-434.28772125 172.9037587 -434.989505 172.90517365 -435.71255493 172.90663147 C-437.93341504 172.9121871 -440.15417084 172.92473108 -442.375 172.9375 C-443.88932145 172.94252074 -445.4036445 172.94708264 -446.91796875 172.95117188 C-450.61201252 172.96214193 -454.30599606 172.97937551 -458 173 C-457.87359131 173.82725586 -457.74718262 174.65451172 -457.61694336 175.50683594 C-457.15042128 178.58471484 -456.69090845 181.66353661 -456.23608398 184.74316406 C-455.94076991 186.72802233 -455.63742126 188.71167977 -455.33398438 190.6953125 C-455.15029297 191.94570312 -454.96660156 193.19609375 -454.77734375 194.484375 C-454.51812134 196.21252441 -454.51812134 196.21252441 -454.25366211 197.97558594 C-454.02538847 200.69729315 -454.12104692 202.44802409 -455 205 C-455.8971875 205.1959375 -456.794375 205.391875 -457.71875 205.59375 C-472.85710184 209.22195003 -485.46634151 215.38047633 -497 226 C-497.63035156 226.53882813 -498.26070312 227.07765625 -498.91015625 227.6328125 C-512.89601767 240.31247729 -521.38612267 261.03079826 -522.38671875 279.578125 C-522.73755897 291.31080674 -521.77939774 301.86072245 -518 313 C-517.649375 314.051875 -517.29875 315.10375 -516.9375 316.1875 C-513.88833498 324.31860671 -509.17093855 331.1116043 -504 338 C-503.27876953 339.00160156 -503.27876953 339.00160156 -502.54296875 340.0234375 C-490.94169897 354.95437685 -470.33701539 364.65077383 -452 367 C-427.56479386 368.64956912 -406.20073252 363.91950862 -387.1484375 347.96875 C-384.46019463 345.50534199 -381.9646871 342.90166333 -379.5703125 340.15234375 C-378 339 -378 339 -376.15087891 339.25683594 C-373.71943812 340.09693875 -372.07260021 341.19554984 -370.015625 342.73828125 C-369.25354736 343.30498535 -368.49146973 343.87168945 -367.70629883 344.45556641 C-366.89572021 345.06835449 -366.0851416 345.68114258 -365.25 346.3125 C-364.40526123 346.94333496 -363.56052246 347.57416992 -362.69018555 348.22412109 C-360.12239773 350.14363349 -357.56094621 352.07137378 -355 354 C-353.58509667 355.05921017 -352.1697644 356.11784773 -350.75390625 357.17578125 C-348.79455542 358.64001957 -346.83709268 360.10641215 -344.88574219 361.58129883 C-341.43626356 364.18849337 -337.9634613 366.75401653 -334.44921875 369.2734375 C-333.70502686 369.81339355 -332.96083496 370.35334961 -332.1940918 370.90966797 C-330.76173174 371.94787799 -329.32203563 372.97606226 -327.87426758 373.99267578 C-325.9375 375.40625 -325.9375 375.40625 -323 378 C-323 382.50551735 -323 382.50551735 -325.60546875 385.28515625 C-326.16991699 385.89270752 -326.73436523 386.50025879 -327.31591797 387.1262207 C-328.24235107 388.08467896 -328.24235107 388.08467896 -329.1875 389.0625 C-329.82316895 389.72789795 -330.45883789 390.3932959 -331.11376953 391.07885742 C-354.26769849 414.96514211 -384.93176574 431.21740414 -418 436 C-418.99 436 -419.98 436 -421 436 C-420.7834375 437.22976563 -420.566875 438.45953125 -420.34375 439.7265625 C-420.06223838 441.35932991 -419.78100296 442.99214497 -419.5 444.625 C-419.35691406 445.43324219 -419.21382812 446.24148438 -419.06640625 447.07421875 C-418.32123749 451.43877864 -417.82727694 455.55238129 -418 460 C-359.8424909 452.54856915 -304.94235815 431.3763115 -260 393 C-258.82187433 392.00750409 -257.64347188 391.01533667 -256.46484375 390.0234375 C-247.2865918 382.47410272 -247.2865918 382.47410272 -239 374 C-238.32541748 373.32251709 -238.32541748 373.32251709 -237.63720703 372.63134766 C-235.31709103 369.99467412 -233.99095627 368.14626434 -234.01928711 364.55541992 C-234.53984507 361.6528268 -235.23338046 358.84750971 -236 356 C-236.51328762 353.84014103 -237.01964712 351.67862541 -237.51953125 349.515625 C-237.90359131 347.87883789 -237.90359131 347.87883789 -238.29541016 346.20898438 C-240.19090663 337.57613418 -241.08438029 328.78096688 -242 320 C-242.10441406 319.05560059 -242.20882813 318.11120117 -242.31640625 317.13818359 C-246.03883285 282.06373672 -245.91198533 245.03778167 -242 210 C-241.87109375 208.79085937 -241.7421875 207.58171875 -241.609375 206.3359375 C-238.78429976 180.43941445 -234.39233936 154.7181484 -226 130 C-225.76313477 129.29633301 -225.52626953 128.59266602 -225.28222656 127.86767578 C-217.65870395 105.56704209 -206.03880672 79.98896302 -184 69 C-175.66192248 65.671679 -168.73553411 65.12211579 -160.375 68.4375 C-149.27293717 75.63328147 -145.4807002 90.80874923 -142.8125 102.9375 C-127.73046221 177.20409772 -145.39262567 279.40168579 -186 343 C-188.19529424 346.17134572 -190.44191689 349.30403298 -192.76342773 352.38427734 C-194.8881491 355.23659689 -196.49569085 357.46251534 -197 361 C-196.63137167 363.4038186 -196.63137167 363.4038186 -195.84765625 365.9375 C-195.56978271 366.90534424 -195.29190918 367.87318848 -195.00561523 368.87036133 C-194.69438721 369.90314209 -194.38315918 370.93592285 -194.0625 372 C-193.74547119 373.06565186 -193.42844238 374.13130371 -193.10180664 375.22924805 C-188.8115412 389.30848135 -183.77488517 403.43022887 -176 416 C-175.60425781 416.67160156 -175.20851563 417.34320313 -174.80078125 418.03515625 C-171.81236824 422.71137727 -168.11856308 425.80214372 -163 428 C-156.95249773 428.83413824 -153.13566523 427.35720541 -148.31640625 423.734375 C-139.20245811 415.69623811 -133.66824792 401.72073801 -132.7517395 389.76016235 C-132.68794682 386.19403922 -132.71444563 382.64034294 -132.77734375 379.07421875 C-132.79108348 377.07904874 -132.80481149 375.08387858 -132.81788731 373.08870411 C-132.83956842 370.32015289 -132.87483253 367.55184736 -132.9105835 364.78344727 C-132.97263309 359.95173957 -133.02552105 355.12002814 -133.05970764 350.28804016 C-133.07918074 347.72673066 -133.10847171 345.16546851 -133.14964294 342.60441589 C-133.34709838 318.81725382 -133.34709838 318.81725382 -125.3125 310.1875 C-118.79901133 306.84273555 -112.33934823 307.94933522 -105.5859375 310.05859375 C-96.943014 313.20503569 -96.943014 313.20503569 -94.34228516 318.15534973 C-92.82310797 321.98393214 -92.54253876 325.67673448 -92.5234375 329.7644043 C-92.50831116 330.50692947 -92.49318481 331.24945465 -92.4776001 332.01448059 C-92.4467886 333.61574773 -92.42249356 335.21715115 -92.40411377 336.81860924 C-92.37453482 339.36425382 -92.32696187 341.90902175 -92.27490234 344.45429993 C-92.16741289 349.86514545 -92.08219485 355.27621907 -92 360.6875 C-91.90458797 366.946613 -91.79972128 373.20529878 -91.67218018 379.46384621 C-91.62611032 381.95175821 -91.59658345 384.43949464 -91.56787109 386.92765808 C-91.3763556 403.56667854 -91.3763556 403.56667854 -84 418 C-81.29311668 420.2235113 -79.76797123 420 -76.1875 420 C-71.08803117 419.1045295 -68.18084172 417.05975851 -65 413 C-61.79217666 407.87002854 -59.35161471 402.56552515 -57 397 C-56.62117676 396.15195801 -56.24235352 395.30391602 -55.85205078 394.43017578 C-48.83899925 378.25914699 -50.59445299 367.6016962 -56.01953125 351.22119141 C-57.56780466 346.13455809 -58.4771391 340.99423412 -59.3125 335.75 C-59.45856689 334.89027588 -59.60463379 334.03055176 -59.75512695 333.14477539 C-62.57821868 315.29031771 -63.30950089 297.41140148 -63.20581055 279.36254883 C-63.18722595 276.01310808 -63.18530404 272.66394077 -63.18554688 269.31445312 C-63.1806409 267.15885179 -63.17481665 265.00325229 -63.16796875 262.84765625 C-63.16685593 261.85911148 -63.1657431 260.87056671 -63.16459656 259.85206604 C-63.12989944 254.7969404 -62.86432749 249.98292339 -62 245 C-62.81984375 245.02320313 -63.6396875 245.04640625 -64.484375 245.0703125 C-65.56203125 245.08835938 -66.6396875 245.10640625 -67.75 245.125 C-68.81734375 245.14820313 -69.8846875 245.17140625 -70.984375 245.1953125 C-74.03005601 244.99805337 -75.5193265 244.7231345 -78 243 C-79.67578125 241.01171875 -79.67578125 241.01171875 -81.3125 238.6875 C-84.46678509 234.44764926 -87.59856269 231.87440804 -92 229 C-92 228.67 -92 228.34 -92 228 C-81.77 228 -71.54 228 -61 228 C-60.773125 225.73125 -60.54625 223.4625 -60.3125 221.125 C-55.70981688 180.55575168 -44.20750485 135.18470761 -15 105 C-14.45085938 104.36578125 -13.90171875 103.7315625 -13.3359375 103.078125 C-6.46610447 95.42993651 3.75419851 90.0754181 14 89 C14.67546875 88.91878906 15.3509375 88.83757812 16.046875 88.75390625 C21.4965743 88.40537897 25.72163882 89.7246571 30 93 C44.11479409 108.38317421 41.75749022 132.46877674 41.10223389 151.82092285 C39.941561 176.56023226 33.40913792 201.4612344 26 225 C61.90629253 221.56305527 97.58843034 213.46325564 126 190 C126.83660156 189.33871094 127.67320312 188.67742187 128.53515625 187.99609375 C134.640225 182.89724869 139.22982164 177.03930855 143.80273438 170.58374023 C147.04774408 166.04127852 150.10063308 162.0872626 155.5 160.0625 C158.9048541 159.97737865 160.3158872 160.93529784 163 163 C169.46324783 169.65334336 170.48958896 176.89462569 170.42138672 185.78881836 C169.89398903 200.85108672 162.72585196 213.70318211 152 224 C116.07876555 254.51312467 60.97830201 249.4002786 17 249 C16.87794189 249.8780127 16.75588379 250.75602539 16.63012695 251.66064453 C16.02969131 254.842651 15.16574933 257.4516618 13.91796875 260.4296875 C13.27130249 261.97547485 13.27130249 261.97547485 12.61157227 263.55249023 C12.14162842 264.64891846 11.67168457 265.74534668 11.1875 266.875 C10.69757568 268.02105713 10.20765137 269.16711426 9.70288086 270.34790039 C1.85776223 288.46896689 -6.88185239 305.7530856 -17.86181641 322.18261719 C-18.23741699 322.78235352 -18.61301758 323.38208984 -19 324 C-19.4012207 324.63454102 -19.80244141 325.26908203 -20.21582031 325.92285156 C-21.26228091 328.69473411 -20.7782039 330.11341952 -19.9453125 332.9375 C-19.52403076 334.38854126 -19.52403076 334.38854126 -19.09423828 335.86889648 C-18.77438965 336.90216064 -18.45454102 337.9354248 -18.125 339 C-17.63942627 340.60500366 -17.63942627 340.60500366 -17.14404297 342.24243164 C-7.42609291 375.47723518 -7.42609291 375.47723518 15 400 C19.89195333 402.17994899 23.67184666 403.02612436 28.92578125 401.40625 C39.08361601 397.14587658 43.74459317 388.20659042 47.83032227 378.58496094 C49.7107935 373.98515068 51.0826313 369.94497688 51.2109375 364.98046875 C51.9097193 344.24994214 55.66974821 325.82364832 70 310 C70.59167969 309.31679688 71.18335938 308.63359375 71.79296875 307.9296875 C80.44829516 298.5426737 91.09220918 293.11019821 103.8125 292.5625 C111.32447675 292.68237197 116.88903742 294.47489924 122.6171875 299.38671875 C129.05441075 306.33815806 129.55382078 314.15717294 129.34765625 323.18359375 C127.95544062 338.46667997 118.94269924 350.94997662 107.80859375 360.97265625 C102.31049133 365.44785589 96.30039773 368.78503069 90 372 C95.15789209 382.04321265 102.92005753 391.37186198 114 395 C121.4613926 396.912149 127.54618915 395.6266064 134.1328125 391.7421875 C144.23399073 384.71361101 150.89237121 372.75621835 154 361 C154.31151372 355.39275312 153.69730417 350.35372897 152.5625 344.875 C152.04006295 342.25031623 151.52017534 339.62513359 151 337 C150.7215625 335.93910156 150.443125 334.87820313 150.15625 333.78515625 C150 331 150 331 151.58984375 328.69140625 C152.36457031 327.98886719 153.13929688 327.28632813 153.9375 326.5625 C154.76765625 325.79292969 155.5978125 325.02335937 156.453125 324.23046875 C162.37823834 319.04145078 162.37823834 319.04145078 164.98046875 316.8984375 C170.56877352 311.64521484 174.62185575 305.70336368 178.5 299.125 C179.46330094 297.51470107 180.4281254 295.90531247 181.39453125 294.296875 C182.07443115 293.16475586 182.07443115 293.16475586 182.76806641 292.00976562 C184.16074209 289.73776677 185.64875516 287.55032147 187.1875 285.375 C195.31947016 273.2538511 199.6786524 260.59484513 202.9375 246.5 C203.32449917 244.905843 203.71316685 243.31209012 204.10351562 241.71875 C204.47543915 240.17743991 204.84593561 238.63578459 205.21484375 237.09375 C205.38145004 236.3977771 205.54805634 235.7018042 205.7197113 234.98474121 C213.27139324 202.26514023 203.4564502 165.06381799 186.60546875 136.6484375 C182.57961482 130.37121071 177.82033707 124.6759469 173 119 C172.23429688 118.09677002 172.23429688 118.09677002 171.453125 117.17529297 C162.10623645 106.18435349 153.2390412 96.31678446 141.07470703 88.36474609 C139.60259027 87.39638499 138.13815091 86.41630713 136.67919922 85.42822266 C117.47401074 72.42310481 96.91760601 62.55529811 75 55 C73.87078125 54.58621094 72.7415625 54.17242187 71.578125 53.74609375 C43.77882208 43.89278527 13.73955042 39.4682812 -15.4375 35.75 C-16.60547119 35.59901855 -17.77344238 35.44803711 -18.97680664 35.29248047 C-41.60540107 32.55625755 -64.21978924 31.61818939 -87 31.6875 C-88.93205292 31.69073273 -88.93205292 31.69073273 -90.90313721 31.69403076 C-111.43835131 31.74891315 -131.62169427 32.4653642 -152 35 C-153.36593292 35.1668631 -153.36593292 35.1668631 -154.75946045 35.33709717 C-161.94774373 36.21567007 -169.13156736 37.12576976 -176.3125 38.0625 C-177.30650818 38.19215149 -178.30051636 38.32180298 -179.324646 38.4553833 C-182.15115307 38.82827823 -184.97614382 39.21087806 -187.80078125 39.59765625 C-188.64285629 39.70907455 -189.48493134 39.82049286 -190.3525238 39.93528748 C-194.78325129 40.55515216 -198.76933564 41.48508962 -203 43 C-205.285024 43.32210579 -207.57835349 43.58777437 -209.875 43.8125 C-216.62455058 44.55427033 -223.20428173 45.79289372 -229.83984375 47.21875 C-231.9722348 47.67013114 -234.10472587 48.12104001 -236.23730469 48.5715332 C-237.34416626 48.80611237 -238.45102783 49.04069153 -239.59143066 49.28237915 C-245.31007023 50.48634908 -251.03624194 51.65328611 -256.76171875 52.82421875 C-260.23458376 53.53787494 -263.70726838 54.25240386 -267.17993164 54.96704102 C-269.55200948 55.45426881 -271.9244152 55.93990265 -274.29711914 56.42407227 C-277.7862182 57.13648626 -281.27406341 57.85477488 -284.76171875 58.57421875 C-285.81993332 58.78882248 -286.87814789 59.00342621 -287.96842957 59.22453308 C-288.95168716 59.42847183 -289.93494476 59.63241058 -290.94799805 59.8425293 C-291.80604538 60.01842087 -292.66409271 60.19431244 -293.54814148 60.37553406 C-296.14733038 61.0375237 -298.52252209 61.97974165 -301 63 C-302.53395565 63.32982664 -304.07663983 63.62125536 -305.625 63.875 C-309.36616297 64.57681344 -312.75982178 65.57347902 -316.3125 66.9375 C-320.09056815 68.37651488 -323.72902916 69.436256 -327.6875 70.25 C-345.00818728 74.03244126 -362.26150135 80.6101009 -378.58203125 87.515625 C-379.70996094 87.98484375 -380.83789062 88.4540625 -382 88.9375 C-382.969375 89.35902344 -383.93875 89.78054687 -384.9375 90.21484375 C-388.86295517 91.22124233 -392.08871212 90.69624808 -396 90 C-398.01283156 89.68628319 -400.02586929 89.37388759 -402.0390625 89.0625 C-404.2346014 88.70973955 -406.42990995 88.35554276 -408.625 88 C-410.28402344 87.73316406 -410.28402344 87.73316406 -411.9765625 87.4609375 C-416.98668348 86.65401898 -421.99482879 85.83712762 -427 85 C-424.68939847 81.5340977 -423.44222106 81.06892873 -419.6875 79.4375 C-418.52734375 78.921875 -417.3671875 78.40625 -416.171875 77.875 C-415.51638672 77.58367187 -414.86089844 77.29234375 -414.18554688 76.9921875 C-410.82814356 75.46800441 -407.51130595 73.86131314 -404.18920898 72.26196289 C-396.98316408 68.79352233 -389.79313589 65.37122161 -382.3671875 62.39453125 C-379.5545916 61.22968585 -376.78245528 60.01281737 -374.0078125 58.76171875 C-361.44400054 53.12126923 -348.83524433 48.31652145 -335.70556641 44.17041016 C-332.17752067 43.05607024 -328.6535755 41.9296656 -325.13032532 40.80029297 C-320.96352543 39.46586764 -316.79434301 38.1389539 -312.625 36.8125 C-311.43763748 36.43390839 -311.43763748 36.43390839 -310.22628784 36.04766846 C-299.52821116 32.6431102 -288.78621038 29.48211863 -277.95259094 26.53735352 C-276.02503131 26.00688862 -274.10337816 25.45511082 -272.18188477 24.90307617 C-268.99143622 23.99756945 -265.81140048 23.28804091 -262.5625 22.625 C-257.63206792 21.5894547 -252.75269076 20.44743941 -247.875 19.1875 C-229.45740603 14.48894441 -210.82238916 10.64366243 -192 8 C-190.44397147 7.77761608 -188.88798276 7.55495339 -187.33203125 7.33203125 C-184.81711777 6.97214627 -182.30196168 6.6148424 -179.78564453 6.26489258 C-174.37844545 5.50730381 -168.98677467 4.68216149 -163.59765625 3.8046875 C-110.00163604 -4.88681587 -53.97981761 -6.6196395 0 0 Z M-204.125 125.8125 C-210.93810233 136.94965127 -213.31373361 150.23560376 -215 163 C-215.15662109 164.15628906 -215.15662109 164.15628906 -215.31640625 165.3359375 C-222.59812292 222.29924004 -214.68619485 283.08774845 -203 339 C-202.01 339 -201.02 339 -200 339 C-180.45880419 315.25593059 -175.73670256 278.42292967 -171 249 C-170.81920898 247.90042969 -170.63841797 246.80085937 -170.45214844 245.66796875 C-167.82110755 228.86696806 -167.69544849 212.0294543 -167.625 195.0625 C-167.6169635 193.97907318 -167.608927 192.89564636 -167.60064697 191.77938843 C-167.47412723 169.29146229 -167.36583246 139.5273596 -182.47265625 121.21484375 C-185.01305018 118.78283996 -186.98004383 118.00326555 -190.4375 117.4375 C-196.72345884 118.43001982 -200.41400724 120.78225407 -204.125 125.8125 Z M-16.796875 139.54296875 C-35.02080384 159.31687092 -35.08687429 194.67930136 -35.015625 219.99609375 C-35.01449707 220.77110229 -35.01336914 221.54611084 -35.01220703 222.34460449 C-35.009299 224.22973848 -35.00481686 226.11486993 -35 228 C-30.1070187 228.02477941 -25.2140742 228.04289763 -20.32104492 228.05493164 C-18.65762699 228.05995023 -16.99421344 228.06676652 -15.33081055 228.07543945 C-12.93537307 228.08761357 -10.53999409 228.09325314 -8.14453125 228.09765625 C-7.4047554 228.10281754 -6.66497955 228.10797882 -5.90278625 228.11329651 C-2.13916846 228.11370241 1.34140381 227.90758309 5 227 C9.31409347 210.2910999 12.23686712 193.26588138 13 176 C13.04125 175.10796875 13.0825 174.2159375 13.125 173.296875 C13.4197538 160.69614989 12.39883951 146.29572907 4.6875 135.875 C-2.95646208 130.5420032 -10.29605465 133.96074258 -16.796875 139.54296875 Z M-34 246 C-33.61870453 257.62951182 -32.61379523 269.0341846 -31.0625 280.5625 C-30.89266602 281.83367676 -30.72283203 283.10485352 -30.54785156 284.41455078 C-29.33894317 294.82285757 -29.33894317 294.82285757 -27 305 C-26.34 305.33 -25.68 305.66 -25 306 C-16.8567551 291.02038168 -9.53763483 276.13942643 -4 260 C-3.71157227 259.18015625 -3.42314453 258.3603125 -3.12597656 257.515625 C-2.84979492 256.71640625 -2.57361328 255.9171875 -2.2890625 255.09375 C-1.9170874 254.02157227 -1.9170874 254.02157227 -1.53759766 252.92773438 C-0.86568738 250.85192634 -0.86568738 250.85192634 -1 248 C-11.89 247.34 -22.78 246.68 -34 246 Z M82 321 C76.66455984 332.12267162 79.32885538 343.48222043 82 355 C82.62158145 356.68400081 83.26919069 358.36044519 84 360 C93.21915508 355.25073829 97.91660898 347.93766441 101.25 338.4375 C102.74895728 331.56727915 102.118571 326.2236417 99 320 C97.47722993 317.39279682 97.47722993 317.39279682 95 316 C88.72294667 315.1032781 85.85897681 315.59743246 82 321 Z " fill="#002368" transform="translate(674,3)"/>
<path d="M0 0 C0.33 0 0.66 0 1 0 C0.93071289 0.9679248 0.86142578 1.93584961 0.79003906 2.93310547 C0.12052492 12.66684645 -0.23762295 22.36727615 -0.25 32.125 C-0.25250763 33.18835571 -0.25250763 33.18835571 -0.25506592 34.27319336 C-0.25688202 47.23437052 0.20579396 60.45827949 3.5456543 73.05859375 C5.28955485 79.68557012 5.19939648 86.13155103 5.09265137 92.95513916 C5.04147869 96.42566167 5.03247089 99.89634701 5.01953125 103.3671875 C5.01641937 104.04232391 5.0133075 104.71746033 5.01010132 105.41305542 C4.91915006 128.88246649 8.53217677 153.69866539 19 175 C19.99 175.99 19.99 175.99 21 177 C21.5259375 178.8871875 21.5259375 178.8871875 22.0625 180.8125 C24.25107161 187.71149986 28.73990951 193.25565688 33 199 C33.61488281 199.84175781 34.22976562 200.68351563 34.86328125 201.55078125 C38.27043644 206.0858223 41.96878794 210.09354731 46.0390625 214.0390625 C47.93082898 215.93082898 49.65266004 217.89171592 51.375 219.9375 C59.3568706 229.13907218 68.9854502 236.19421416 79 243 C79.67514648 243.46229004 80.35029297 243.92458008 81.04589844 244.40087891 C115.7441388 268.01921205 159.92331012 280.4244002 201 287 C201.78810059 287.12858398 202.57620117 287.25716797 203.38818359 287.38964844 C212.58912651 288.880745 221.71362949 290.17646246 231.0234375 290.75390625 C234.08183323 291.00676574 237.03947921 291.47575462 240.0625 292 C245.38402461 292.85688519 250.63240387 293.29530948 256.00805664 293.55200195 C256.87666604 293.59404157 257.74527544 293.63608118 258.64020634 293.67939472 C269.02750679 294.14200707 279.41280116 294.16420492 289.80859375 294.16796875 C291.95256063 294.17119727 294.09652731 294.17456241 296.24049377 294.17805481 C300.70712798 294.18399167 305.173743 294.18590045 309.64038086 294.18530273 C314.15572123 294.18522165 318.67095978 294.19214537 323.1862793 294.20581055 C347.54209928 294.27827151 371.73309841 294.29921035 396 292 C398.25133663 291.79919752 400.5027209 291.59892852 402.75415039 291.39916992 C408.20963985 290.90506216 413.6606455 290.37440388 419.1105957 289.82275391 C422.38615952 289.49257508 425.66271836 289.17379531 428.93945312 288.85546875 C431.05996287 288.64389998 433.18040839 288.43168627 435.30078125 288.21875 C436.26220535 288.12597778 437.22362946 288.03320557 438.21418762 287.93762207 C443.65418385 287.37673979 448.71889059 286.41484842 454 285 C456.41219771 284.69189178 458.82952046 284.42182302 461.25 284.1875 C468.52699803 283.3889637 475.43943844 281.74215856 482.51147461 279.88745117 C487.75542477 278.52505481 492.96694594 277.37977839 498.3125 276.5 C508.0340617 274.89366746 517.62753559 272.75154075 527.24316406 270.60986328 C529.77187553 270.05046537 532.30294412 269.50446312 534.8359375 268.96484375 C548.19873046 266.09995064 561.63837445 262.99996924 574.34765625 257.89453125 C576.61453616 257.13000179 578.76811482 256.5853863 581.1015625 256.0859375 C600.99712902 251.81864329 621.19988245 245.37740165 639.51953125 236.5078125 C643.80547611 234.65105076 648.17431331 233.27862056 652.625 231.875 C664.81567072 227.98752063 676.32272438 222.7102373 687.94140625 217.38671875 C690.57357261 216.19333554 693.21506481 215.03593483 695.875 213.90625 C705.90835649 209.6301025 715.43325436 204.64675379 724.9440918 199.30297852 C725.91773682 198.76084717 726.89138184 198.21871582 727.89453125 197.66015625 C728.75925049 197.17168213 729.62396973 196.68320801 730.51489258 196.17993164 C733.02936629 194.98605685 735.25821443 194.41957023 738 194 C740.13527429 197.48695924 740.26033674 200.27577671 740.27807617 204.32568359 C740.29139229 206.2482045 740.29139229 206.2482045 740.30497742 208.20956421 C740.30252891 209.6058589 740.29848682 211.00215157 740.29296875 212.3984375 C740.29133539 213.10439686 740.28970203 213.81035622 740.28801918 214.53770828 C740.27735073 218.27303182 740.2527662 222.007991 740.21801758 225.74316406 C740.18531286 229.59267187 740.20392527 233.44016272 740.23395824 237.28961754 C740.24725853 240.25847041 740.22086696 243.22604653 740.18395424 246.19466019 C740.17336485 247.61312345 740.177819 249.03178503 740.19789696 250.45014572 C740.33501973 261.52412342 740.33501973 261.52412342 737.0218811 265.18682861 C734.73145559 266.74075708 732.54206609 267.91702131 730 269 C728.5459375 269.7425 728.5459375 269.7425 727.0625 270.5 C726.051875 270.995 725.04125 271.49 724 272 C722.48524107 272.92521979 720.97535856 273.85844178 719.46875 274.796875 C714.29315428 277.91525693 708.99584694 280.39765871 703.4375 282.75 C701.95745483 283.38397705 701.95745483 283.38397705 700.44750977 284.03076172 C678.27458654 293.46641929 655.83870172 302.79787531 632.62036133 309.35107422 C629.04481413 310.36698709 625.60676465 311.48059593 622.1875 312.9375 C614.06186592 316.35520758 605.45345276 318.54751052 597 321 C596.06961914 321.27166992 595.13923828 321.54333984 594.18066406 321.82324219 C591.39251048 322.63649375 588.60289595 323.4444786 585.8125 324.25 C584.96453857 324.4960498 584.11657715 324.74209961 583.24291992 324.99560547 C579.45441961 326.07931625 575.67799997 327.0976715 571.82421875 327.921875 C567.81244342 328.78097644 563.86897775 329.8295333 559.91015625 330.90625 C552.13784406 333.01029996 544.30745413 334.79806555 536.4375 336.5 C535.4029216 336.72544495 535.4029216 336.72544495 534.34744263 336.95544434 C523.83003974 339.24451457 513.28784898 341.3201125 502.68359375 343.16796875 C498.60259862 343.88002807 494.55306776 344.70435862 490.5 345.5625 C479.25578122 347.84861741 467.8394299 349.1615894 456.45703125 350.5625 C455.76150146 350.64814209 455.06597168 350.73378418 454.34936523 350.82202148 C452.53291579 351.04326579 450.71570785 351.25825919 448.8984375 351.47265625 C445.71340362 351.90349751 442.56795346 352.41202261 439.40234375 352.9609375 C432.68776648 354.09275468 425.96095442 354.87720386 419.1875 355.5625 C417.91245605 355.69180908 416.63741211 355.82111816 415.32373047 355.9543457 C400.91226654 357.3536361 386.47073745 357.73014594 372 358 C372 358.66 372 359.32 372 360 C339 360 306 360 272 360 C271.67 359.34 271.34 358.68 271 358 C269.71867187 357.95101563 268.43734375 357.90203125 267.1171875 357.8515625 C255.38349569 357.36123662 244.00177798 356.47228055 232.484375 354.05078125 C225.99370935 352.73717966 219.44006895 351.96711394 212.875 351.125 C203.81820044 349.9161499 195.06257293 348.56319444 186.25390625 346.12109375 C181.6599677 344.85927369 177.00396302 343.91866731 172.34375 342.93652344 C157.75072926 339.84115648 143.26340552 336.25080973 129.63671875 330.05078125 C125.33099219 328.09380322 120.93840374 326.49407169 116.48583984 324.9050293 C104.0340856 320.44230302 92.77772748 315.22936123 81.79296875 307.84375 C78.95578507 305.87682286 78.95578507 305.87682286 75.4375 304.3125 C70.31397495 301.83464877 65.78080986 298.49393821 61.1484375 295.21875 C56.89919309 292.22424526 52.63124085 289.34157199 48.125 286.75 C44.20836713 284.32718726 41.25203158 281.36604673 38.078125 278.0546875 C35.30358836 275.31144263 32.28856544 272.98517178 29.17578125 270.640625 C28.45777344 270.09921875 27.73976562 269.5578125 27 269 C26.17757812 268.38253906 25.35515625 267.76507812 24.5078125 267.12890625 C21.82044727 264.84757595 19.75213503 262.44698658 17.5625 259.6875 C15.07032514 256.57433768 12.58233306 253.48447009 9.9375 250.5 C6.71939475 246.77517652 3.86053884 242.80657155 1.00390625 238.80078125 C-0.2335374 237.07125474 -1.49249863 235.35662651 -2.78515625 233.66796875 C-8.47531946 226.05948173 -12.2258178 217.6667738 -16 209 C-16.34208496 208.22333984 -16.68416992 207.44667969 -17.03662109 206.64648438 C-24.7403272 188.96965097 -32.58494969 167.86036191 -32.125 148.3125 C-32.10695312 147.29800781 -32.08890625 146.28351563 -32.0703125 145.23828125 C-32.04710937 144.49964844 -32.02390625 143.76101563 -32 143 C-32.66 143 -33.32 143 -34 143 C-34 127.82 -34 112.64 -34 97 C-33.34 97 -32.68 97 -32 97 C-32.00902344 95.82308594 -32.01804688 94.64617187 -32.02734375 93.43359375 C-31.86543068 79.22025158 -29.37043778 64.68038403 -22.91625977 51.84472656 C-21.80699132 49.61141124 -21.64405362 47.72529329 -21.375 45.25 C-20.11349585 37.82880759 -16.61097069 31.692955 -13.11425781 25.12011719 C-11.26011186 21.59220233 -9.51226462 18.01193631 -7.75 14.4375 C-5.32607274 9.52118341 -2.75672055 4.73887581 0 0 Z " fill="#002368" transform="translate(34,256)"/>
<path d="M0 0 C2.3217545 12.67993577 4.35751455 25.39579701 6.27197266 38.14331055 C6.75623353 41.35382657 7.2512198 44.56258931 7.74609375 47.77148438 C8.05534804 49.82281719 8.36396603 51.87424606 8.671875 53.92578125 C8.82074158 54.87987381 8.96960815 55.83396637 9.12298584 56.81697083 C9.25352356 57.70277328 9.38406128 58.58857574 9.51855469 59.5012207 C9.63608093 60.27601273 9.75360718 61.05080475 9.87469482 61.84907532 C10.00708361 64.12159365 9.66761823 65.83523732 9 68 C7.65421875 68.29390625 7.65421875 68.29390625 6.28125 68.59375 C-8.85710184 72.22195003 -21.46634151 78.38047633 -33 89 C-33.63035156 89.53882813 -34.26070313 90.07765625 -34.91015625 90.6328125 C-48.89601767 103.31247729 -57.38612267 124.03079826 -58.38671875 142.578125 C-58.73755897 154.31080674 -57.77939774 164.86072245 -54 176 C-53.649375 177.051875 -53.29875 178.10375 -52.9375 179.1875 C-49.88833498 187.31860671 -45.17093855 194.1116043 -40 201 C-39.51917969 201.66773438 -39.03835937 202.33546875 -38.54296875 203.0234375 C-26.94169897 217.95437685 -6.33701539 227.65077383 12 230 C36.43520614 231.64956912 57.79926748 226.91950862 76.8515625 210.96875 C79.53980537 208.50534199 82.0353129 205.90166333 84.4296875 203.15234375 C86 202 86 202 87.84912109 202.25683594 C90.28056188 203.09693875 91.92739979 204.19554984 93.984375 205.73828125 C94.74645264 206.30498535 95.50853027 206.87168945 96.29370117 207.45556641 C97.10427979 208.06835449 97.9148584 208.68114258 98.75 209.3125 C99.59473877 209.94333496 100.43947754 210.57416992 101.30981445 211.22412109 C103.87760227 213.14363349 106.43905379 215.07137378 109 217 C110.41490333 218.05921017 111.8302356 219.11784773 113.24609375 220.17578125 C115.20544458 221.64001957 117.16290732 223.10641215 119.11425781 224.58129883 C122.56373644 227.18849337 126.0365387 229.75401653 129.55078125 232.2734375 C130.29497314 232.81339355 131.03916504 233.35334961 131.8059082 233.90966797 C133.23826826 234.94787799 134.67796437 235.97606226 136.12573242 236.99267578 C138.0625 238.40625 138.0625 238.40625 141 241 C141 245.50551735 141 245.50551735 138.39453125 248.28515625 C137.83008301 248.89270752 137.26563477 249.50025879 136.68408203 250.1262207 C135.75764893 251.08467896 135.75764893 251.08467896 134.8125 252.0625 C134.17683105 252.72789795 133.54116211 253.3932959 132.88623047 254.07885742 C106.17378469 281.63621434 69.00301048 299.39259028 30.3359375 300.16796875 C6.23057026 300.35445899 -15.91023747 296.96868343 -38 287 C-38.63470215 286.71817871 -39.2694043 286.43635742 -39.92333984 286.14599609 C-56.62813701 278.62239807 -71.12418694 267.98176939 -84 255 C-84.73041504 254.26547607 -84.73041504 254.26547607 -85.47558594 253.51611328 C-100.64893198 238.06253418 -111.75464982 219.34190152 -119 199 C-119.3400708 198.06534912 -119.3400708 198.06534912 -119.68701172 197.11181641 C-132.6452553 161.03036872 -129.86176669 119.62062829 -114 85 C-96.77838686 48.93375601 -66.17873356 19.77519284 -28.3515625 6.31640625 C-9.56584372 -0.15277234 -9.56584372 -0.15277234 0 0 Z " fill="#EC3237" transform="translate(210,140)"/>
<path d="M0 0 C1.44676229 8.05364344 2.88777018 16.10860385 4.1875 24.1875 C4.34605469 25.17105469 4.50460938 26.15460938 4.66796875 27.16796875 C5.01607446 30.13710566 5.057522 33.01328053 5 36 C3.8140625 36.27972656 2.628125 36.55945313 1.40625 36.84765625 C-20.37684606 42.16380941 -38.1190056 51.14250739 -55 66 C-55.91458984 66.78890625 -55.91458984 66.78890625 -56.84765625 67.59375 C-67.64295241 77.59790152 -75.05757765 90.70910268 -81 104 C-81.42023438 104.9384375 -81.84046875 105.876875 -82.2734375 106.84375 C-93.96710044 134.62718976 -92.13306959 166.12888909 -80.96923828 193.71044922 C-69.07981152 221.79585078 -46.17341568 243.48396397 -18 255 C-13.381836 256.60674649 -8.7576306 257.88084752 -4 259 C-3.0824292 259.24645264 -2.1648584 259.49290527 -1.21948242 259.74682617 C7.33347927 261.93500636 15.50597968 262.53159296 24.3125 262.6875 C25.65042142 262.72078971 26.9883133 262.75528937 28.32617188 262.79101562 C31.55069638 262.8725018 34.77498285 262.94196957 38 263 C38.57589328 267.00100322 39.14531217 271.00287151 39.70898438 275.00561523 C39.9012566 276.36458625 40.09523563 277.723317 40.29101562 279.08178711 C40.57360221 281.04475461 40.84935725 283.00870166 41.125 284.97265625 C41.29257813 286.15093994 41.46015625 287.32922363 41.6328125 288.54321289 C42.00596373 292.05614396 42.06306863 295.47012768 42 299 C15.81796493 304.58490509 -14.0418639 297.81184436 -38 287 C-38.63470215 286.71817871 -39.2694043 286.43635742 -39.92333984 286.14599609 C-56.62813701 278.62239807 -71.12418694 267.98176939 -84 255 C-84.73041504 254.26547607 -84.73041504 254.26547607 -85.47558594 253.51611328 C-100.64893198 238.06253418 -111.75464982 219.34190152 -119 199 C-119.3400708 198.06534912 -119.3400708 198.06534912 -119.68701172 197.11181641 C-132.6452553 161.03036872 -129.86176669 119.62062829 -114 85 C-96.77838686 48.93375601 -66.17873356 19.77519284 -28.3515625 6.31640625 C-8.92909981 -0.37204583 -8.92909981 -0.37204583 0 0 Z " fill="#FDFBFB" transform="translate(210,140)"/>
<path d="M0 0 C5.86310571 4.35067978 10.29968854 9.82447175 12 17 C13.01647401 27.17642366 12.29949338 35.09996596 5.9375 43.1875 C-0.32036729 49.78363039 -6.48276409 52.28074643 -15.5625 52.5625 C-21.86111444 52.34004641 -26.65709484 51.34369995 -32 48 C-32.886875 47.46375 -33.77375 46.9275 -34.6875 46.375 C-40.66192296 40.23910615 -44.10222216 33.3466702 -44.25 24.8125 C-44.10274726 15.57239085 -41.56754242 9.67762763 -35.19140625 2.94921875 C-25.1715645 -5.96326081 -11.5497997 -6.12881748 0 0 Z " fill="#EC3136" transform="translate(580,240)"/>
</svg>
